HIERARCHY
ROOT Hips
{
	OFFSET 0.000000 0.000000 0.000000
	CHANNELS 6 Xposition Yposition Zposition Xrotation Yrotation Zrotation
	JOINT LeftUpLeg_virtual
	{
		OFFSET 0.000000 0.000000 0.000000
		CHANNELS 3 Xrotation Yrotation Zrotation
		JOINT LeftUpLeg
		{
			OFFSET 11.394100 -6.187798 -0.413800
			CHANNELS 3 Xrotation Yrotation Zrotation
			JOINT LeftLeg
			{
				OFFSET 0.430247 -32.302673 3.732800
				CHANNELS 3 Xrotation Yrotation Zrotation
				JOINT LeftFoot
				{
					OFFSET -0.430247 -48.264931 -6.423300
					CHANNELS 3 Xrotation Yrotation Zrotation
					JOINT LeftToeBase
					{
						OFFSET 4.230900 -16.068199 23.438400
						CHANNELS 3 Xrotation Yrotation Zrotation
						JOINT LeftToe_End
						{
							OFFSET 4.510700 0.695400 19.974600
							CHANNELS 3 Xrotation Yrotation Zrotation
							End Site
							{
								OFFSET 0 0 0
							}
						}
					}
				}
			}
		}
	}
	JOINT RightUpLeg_virtual
	{
		OFFSET 0.000000 0.000000 0.000000
		CHANNELS 3 Xrotation Yrotation Zrotation
		JOINT RightUpLeg
		{
			OFFSET -11.333700 -6.187798 -0.413800
			CHANNELS 3 Xrotation Yrotation Zrotation
			JOINT RightLeg
			{
				OFFSET -0.430392 -32.302628 3.733000
				CHANNELS 3 Xrotation Yrotation Zrotation
				JOINT RightFoot
				{
					OFFSET 0.430392 -48.264973 -6.423500
					CHANNELS 3 Xrotation Yrotation Zrotation
					JOINT RightToeBase
					{
						OFFSET -4.230900 -16.068199 23.438400
						CHANNELS 3 Xrotation Yrotation Zrotation
						JOINT RightToe_End
						{
							OFFSET -4.510700 0.695400 19.974600
							CHANNELS 3 Xrotation Yrotation Zrotation
							End Site
							{
								OFFSET 0 0 0
							}
						}
					}
				}
			}
		}
	}
	JOINT Spine_virtual
	{
		OFFSET 0.000000 0.000000 0.000000
		CHANNELS 3 Xrotation Yrotation Zrotation
		JOINT Spine
		{
			OFFSET -0.002400 12.777504 0.315300
			CHANNELS 3 Xrotation Yrotation Zrotation
			JOINT Spine1
			{
				OFFSET -0.002067 5.816869 0.032633
				CHANNELS 3 Xrotation Yrotation Zrotation
				JOINT Spine1_split
				{
					OFFSET -0.002067 5.816869 0.032633
					CHANNELS 3 Xrotation Yrotation Zrotation
					JOINT Spine2
					{
						OFFSET -0.002067 5.816869 0.032633
						CHANNELS 3 Xrotation Yrotation Zrotation
						JOINT Neck_virtual
						{
							OFFSET 0.000000 0.000000 0.000000
							CHANNELS 3 Xrotation Yrotation Zrotation
							JOINT Neck
							{
								OFFSET -0.003700 21.199493 -0.826900
								CHANNELS 3 Xrotation Yrotation Zrotation
								JOINT Head
								{
									OFFSET 0.000000 20.442200 4.834800
									CHANNELS 3 Xrotation Yrotation Zrotation
									JOINT HeadTop_End
									{
										OFFSET 0.000000 34.668396 4.968400
										CHANNELS 3 Xrotation Yrotation Zrotation
										End Site
										{
											OFFSET 0 0 0
										}
									}
								}
							}
						}
						JOINT LeftShoulder_virtual
						{
							OFFSET 0.000000 0.000000 0.000000
							CHANNELS 3 Xrotation Yrotation Zrotation
							JOINT LeftShoulder
							{
								OFFSET 3.288150 8.794197 -1.372250
								CHANNELS 3 Xrotation Yrotation Zrotation
								JOINT LeftShoulder_split
								{
									OFFSET 3.288150 8.794197 -1.372250
									CHANNELS 3 Xrotation Yrotation Zrotation
									JOINT LeftArm
									{
										OFFSET 11.953299 -2.279007 -0.146200
										CHANNELS 3 Xrotation Yrotation Zrotation
										JOINT LeftForeArm
										{
											OFFSET 18.448900 0.000000 0.000000
											CHANNELS 3 Xrotation Yrotation Zrotation
											JOINT LeftHand
											{
												OFFSET 29.527798 0.000000 0.000000
												CHANNELS 3 Xrotation Yrotation Zrotation
												End Site
												{
													OFFSET 0 0 0
												}
											}
										}
									}
								}
							}
						}
						JOINT RightShoulder_virtual
						{
							OFFSET 0.000000 0.000000 0.000000
							CHANNELS 3 Xrotation Yrotation Zrotation
							JOINT RightShoulder
							{
								OFFSET -3.249400 8.794197 -1.372250
								CHANNELS 3 Xrotation Yrotation Zrotation
								JOINT RightShoulder_split
								{
									OFFSET -3.249400 8.794197 -1.372250
									CHANNELS 3 Xrotation Yrotation Zrotation
									JOINT RightArm
									{
										OFFSET -11.953299 -2.279007 -0.146200
										CHANNELS 3 Xrotation Yrotation Zrotation
										JOINT RightForeArm
										{
											OFFSET -18.448900 0.000000 0.000000
											CHANNELS 3 Xrotation Yrotation Zrotation
											JOINT RightHand
											{
												OFFSET -29.527802 0.000000 0.000000
												CHANNELS 3 Xrotation Yrotation Zrotation
												End Site
												{
													OFFSET 0 0 0
												}
											}
										}
									}
								}
							}
						}
					}
				}
			}
		}
	}
}
MOTION
Frames: 8
Frame Time: 0.03333333
-4.136504 89.558929 0.071693 0.000000 0.000000 0.000000 51.317264 -72.526623 53.010854 -60.478921 2.696412 -1.985592 45.580574 -5.882459 4.773584 2.680613 -1.834964 1.066102 0.447024 1.960103 -1.380100 0.000000 0.000000 0.000000 56.097682 -73.503477 58.530370 -47.908770 -2.738904 -16.248470 43.040297 -5.689782 -2.600854 -10.407702 -1.812259 15.818383 -0.628083 0.225521 -1.929331 0.000000 0.000000 0.000000 53.187004 -71.610729 54.060459 6.292680 3.166964 4.315679 13.214591 6.789982 6.508931 0.545150 -1.180861 0.621250 0.000000 0.000000 0.000000 12.055646 6.550235 6.302142 1.617538 -0.634716 2.096994 8.476022 4.875096 -5.482820 0.000000 0.000000 0.000000 12.599291 6.546945 6.267749 1.571477 -1.973869 -10.135635 0.697748 1.580372 -0.808221 -52.284880 -25.577296 -93.508958 -0.657006 -24.574363 0.021236 0.000000 0.000000 0.000000 11.998381 6.712503 6.424170 0.935664 12.832794 22.453837 -6.596929 -0.323944 -0.567005 -52.845573 22.646582 73.082997 0.280447 5.731766 1.371366 0.000000 0.000000 0.000000 
-4.111603 89.560532 0.160809 0.000000 0.000000 0.000000 51.497376 -72.575234 53.172715 -60.528119 2.758382 -2.004602 45.549319 -5.824668 4.793762 2.700461 -1.780832 1.048542 0.460883 1.965209 -1.404079 0.000000 0.000000 0.000000 56.145528 -73.500499 58.551052 -47.896128 -2.757993 -16.260254 43.024963 -5.670476 -2.604577 -10.353171 -1.842381 15.776419 -0.660504 0.235409 -1.919100 0.000000 0.000000 0.000000 53.130156 -71.609978 53.985098 6.234267 3.167864 4.307344 13.243702 6.775708 6.489347 0.548851 -1.187524 0.591725 0.000000 0.000000 0.000000 12.071470 6.539893 6.294115 1.625488 -0.610619 2.108080 8.428672 4.924983 -5.510227 0.000000 0.000000 0.000000 12.592568 6.532894 6.274775 1.579695 -1.962962 -10.171331 0.738700 1.548163 -0.776431 -52.271728 -25.582388 -93.490796 -0.668124 -24.546513 -0.003744 0.000000 0.000000 0.000000 11.983566 6.680953 6.419444 0.958715 12.766222 22.420663 -6.549278 -0.274890 -0.542603 -52.740894 22.468566 73.066427 0.236976 6.045390 1.394928 0.000000 0.000000 0.000000 
-4.078857 89.580719 0.276733 0.000000 0.000000 0.000000 51.640629 -72.596469 53.279277 -60.571210 2.792718 -2.041352 45.516005 -5.802405 4.799904 2.673530 -1.743850 1.056398 0.475893 1.982478 -1.452630 0.000000 0.000000 0.000000 56.123258 -73.475610 58.484717 -47.895698 -2.817571 -16.311125 42.999398 -5.652800 -2.591331 -10.295760 -1.887828 15.736776 -0.609961 0.242675 -1.883070 0.000000 0.000000 0.000000 53.031563 -71.582213 53.850174 6.152163 3.179445 4.303264 13.288469 6.772167 6.451885 0.577106 -1.144287 0.588562 0.000000 0.000000 0.000000 12.095823 6.533252 6.263246 1.635405 -0.564855 2.083868 8.271941 5.111974 -5.546965 0.000000 0.000000 0.000000 12.604821 6.525915 6.261134 1.589942 -1.970824 -10.199467 0.763488 1.493159 -0.740603 -52.175190 -25.617849 -93.453018 -0.659779 -24.561722 -0.017932 0.000000 0.000000 0.000000 12.006175 6.658767 6.386610 0.979438 12.684507 22.377959 -6.481409 -0.228779 -0.499347 -52.283674 22.510920 72.926818 0.195550 6.841670 1.405465 0.000000 0.000000 0.000000 
-4.046249 89.614143 0.420040 0.000000 0.000000 0.000000 51.702278 -72.581859 53.288644 -60.615169 2.802625 -2.093913 45.498400 -5.779993 4.782427 2.635571 -1.704444 1.110416 0.508696 2.009550 -1.524895 0.000000 0.000000 0.000000 55.970685 -73.410641 58.270434 -47.911786 -2.910418 -16.401600 42.960609 -5.640593 -2.560867 -10.234593 -1.943729 15.714247 -0.487265 0.248466 -1.846916 0.000000 0.000000 0.000000 52.869093 -71.527865 53.636612 6.063001 3.198538 4.303101 13.347056 6.775679 6.401920 0.605902 -1.097629 0.599518 0.000000 0.000000 0.000000 12.127750 6.527196 6.216971 1.641353 -0.504084 2.030820 8.029521 5.418522 -5.586632 0.000000 0.000000 0.000000 12.635085 6.522363 6.230511 1.602290 -1.985431 -10.218196 0.759129 1.432076 -0.729584 -52.025896 -25.702734 -93.391342 -0.635129 -24.649932 -0.026061 0.000000 0.000000 0.000000 12.053656 6.645824 6.334281 0.988989 12.600418 22.323304 -6.429934 -0.168075 -0.445431 -51.573013 22.775587 72.699031 0.172334 7.848732 1.397199 0.000000 0.000000 0.000000 
-4.008947 89.650925 0.591866 0.000000 0.000000 0.000000 51.721187 -72.528454 53.229973 -60.680002 2.803420 -2.157451 45.492396 -5.707093 4.729228 2.600605 -1.640472 1.254133 0.570461 2.038560 -1.612103 0.000000 0.000000 0.000000 55.722985 -73.308789 57.942032 -47.952634 -3.016779 -16.530361 42.894852 -5.623499 -2.521855 -10.186799 -2.005721 15.734987 -0.321347 0.247019 -1.836746 0.000000 0.000000 0.000000 52.650141 -71.445350 53.354873 5.980812 3.218728 4.305338 13.416761 6.778451 6.342332 0.629131 -1.056751 0.617471 0.000000 0.000000 0.000000 12.163983 6.516608 6.162798 1.638874 -0.434841 1.943752 7.727255 5.809192 -5.612487 0.000000 0.000000 0.000000 12.678107 6.517246 6.188288 1.615069 -1.998367 -10.225554 0.741261 1.370675 -0.764337 -51.859659 -25.865248 -93.297358 -0.594414 -24.837114 -0.031652 0.000000 0.000000 0.000000 12.110304 6.637387 6.271223 0.983567 12.522587 22.258487 -6.391771 -0.080288 -0.389406 -50.763144 23.199045 72.416910 0.173270 8.813610 1.371528 0.000000 0.000000 0.000000 
-3.969956 89.673882 0.757214 0.000000 0.000000 0.000000 51.720641 -72.432210 53.122746 -60.767449 2.797279 -2.227712 45.503219 -5.566608 4.641726 2.596830 -1.556202 1.485102 0.619935 2.063583 -1.688569 0.000000 0.000000 0.000000 55.456061 -73.188954 57.579185 -48.009239 -3.108560 -16.684918 42.819545 -5.590120 -2.484221 -10.158293 -2.075690 15.820181 -0.120409 0.227306 -1.859332 0.000000 0.000000 0.000000 52.347803 -71.341954 52.989011 5.912976 3.231705 4.307703 13.491936 6.772174 6.272930 0.632523 -1.040891 0.618278 0.000000 0.000000 0.000000 12.201284 6.495883 6.105492 1.630129 -0.360766 1.824161 7.392473 6.252852 -5.609347 0.000000 0.000000 0.000000 12.726699 6.506144 6.135688 1.627739 -2.001683 -10.228972 0.732909 1.297749 -0.813873 -51.715539 -26.134522 -93.168083 -0.546401 -25.147916 -0.042351 0.000000 0.000000 0.000000 12.166195 6.628280 6.202672 0.960930 12.461792 22.177233 -6.368846 0.000913 -0.323985 -50.001206 23.675478 72.119988 0.195769 9.574589 1.333653 0.000000 0.000000 0.000000 
-3.927615 89.680199 0.936867 0.000000 0.000000 0.000000 51.697258 -72.314191 52.983044 -60.877073 2.798245 -2.297610 45.545764 -5.401811 4.530696 2.639848 -1.479442 1.766194 0.632589 2.078838 -1.726046 0.000000 0.000000 0.000000 55.201295 -73.062458 57.227420 -48.097980 -3.133352 -16.843380 42.769446 -5.511957 -2.460392 -10.094161 -2.147704 15.999240 0.010152 0.190570 -1.909590 0.000000 0.000000 0.000000 51.991646 -71.225308 52.572209 5.865381 3.229857 4.301358 13.566419 6.750118 6.194365 0.608671 -1.051797 0.597106 0.000000 0.000000 0.000000 12.238517 6.464222 6.047607 1.618739 -0.288231 1.673775 7.037301 6.716329 -5.569252 0.000000 0.000000 0.000000 12.774350 6.486571 6.072431 1.636519 -2.005106 -10.231426 0.742718 1.225008 -0.850245 -51.594788 -26.529840 -92.992909 -0.493832 -25.583792 -0.065455 0.000000 0.000000 0.000000 12.213169 6.613390 6.131471 0.926818 12.414435 22.082167 -6.343940 0.073092 -0.260788 -49.337322 24.100855 71.848208 0.226683 10.139717 1.290903 0.000000 0.000000 0.000000 
-3.878962 89.666664 1.112347 0.000000 0.000000 0.000000 51.605197 -72.183946 52.775629 -61.010938 2.826609 -2.354136 45.618530 -5.241984 4.395270 2.699176 -1.447180 2.079280 0.638073 2.077001 -1.714345 0.000000 0.000000 0.000000 54.984816 -72.945683 56.922339 -48.223284 -3.055398 -16.969941 42.807852 -5.381740 -2.455400 -9.955732 -2.227672 16.265296 0.044232 0.137511 -1.947805 0.000000 0.000000 0.000000 51.635359 -71.105097 52.153327 5.845912 3.211988 4.283108 13.630032 6.716540 6.109194 0.579539 -1.028135 0.576278 0.000000 0.000000 0.000000 12.273422 6.422160 5.989161 1.610121 -0.223575 1.499675 6.673175 7.164707 -5.492901 0.000000 0.000000 0.000000 12.813793 6.459386 5.999672 1.638160 -2.021986 -10.248708 0.757869 1.172988 -0.848840 -51.465400 -27.047068 -92.756735 -0.445043 -26.126686 -0.106687 0.000000 0.000000 0.000000 12.249148 6.589438 6.055731 0.890377 12.378613 21.967997 -6.279644 0.121186 -0.227174 -48.757572 24.417375 71.601153 0.259345 10.652388 1.260772 0.000000 0.000000 0.000000 
